<svg version="1.1" id="Layer_1" xmlns="http://www.w3.org/2000/svg" xmlns:xlink="http://www.w3.org/1999/xlink" x="0px" y="0px"
	 width="100%" viewBox="0 0 998 102" enable-background="new 0 0 998 102" xml:space="preserve">
<path fill="#020202" opacity="1.000000" stroke="none" 
	d="
M375.000000,1.000002 
	C375.444458,1.000000 375.888885,1.000000 376.960938,1.296319 
	C383.023682,1.725594 388.460571,2.004663 393.893219,1.937857 
	C397.265503,1.896388 400.631287,1.330500 404.000000,0.999999 
	C404.444458,1.000000 404.888885,1.000000 405.482788,1.381533 
	C411.082642,22.019602 416.533112,42.276138 422.313782,63.759937 
	C423.429169,60.297222 424.130615,58.268639 424.737488,56.212143 
	C430.167786,37.810883 435.581451,19.404716 441.000000,0.999997 
	C441.444458,1.000000 441.888885,1.000000 442.962524,1.294023 
	C450.394440,1.392031 457.197235,1.196016 464.000000,1.000000 
	C464.444458,1.000000 464.888885,1.000000 465.506897,1.378494 
	C471.770264,22.049116 477.860107,42.341244 484.311798,63.839046 
	C486.363373,56.408585 488.097351,50.359001 489.700745,44.275009 
	C493.500092,29.858688 497.237549,15.426047 501.000000,1.000001 
	C501.444458,1.000000 501.888885,1.000000 502.960938,1.296315 
	C511.725708,1.395087 519.862854,1.197543 528.000000,1.000000 
	C528.444458,1.000000 528.888916,1.000000 529.671326,1.390232 
	C519.672852,35.520309 509.336426,69.260155 499.000000,103.000000 
	C489.979095,103.000000 480.958221,103.000000 471.617798,102.617020 
	C465.286713,82.176170 459.275146,62.118313 452.859222,40.711227 
	C446.260651,62.505177 440.130310,82.752586 434.000000,103.000000 
	C424.979095,103.000000 415.958221,103.000000 406.473022,102.613022 
	C395.672485,68.484032 385.336243,34.742020 375.000000,1.000002 
z"/>
<path fill="#020202" opacity="1.000000" stroke="none" 
	d="
M76.000000,103.000000 
	C74.611107,103.000000 73.222221,103.000000 71.124527,102.700790 
	C68.605568,102.268196 66.795586,102.021446 64.985245,102.018745 
	C43.998356,101.987457 23.011414,101.993050 2.015194,101.520988 
	C2.013474,68.046158 2.021045,35.039204 2.494270,2.019392 
	C22.584089,2.003449 42.208347,2.025211 61.832264,1.954000 
	C63.555973,1.947745 65.277473,1.332426 67.000000,1.000000 
	C68.714165,1.000000 70.428322,1.000000 72.721207,1.369145 
	C88.221680,3.296646 97.597351,10.416456 99.627464,22.545677 
	C101.681557,34.818119 98.860390,45.192200 87.406151,49.874046 
	C91.848816,53.942379 97.673096,57.320961 100.646103,62.376350 
	C108.580826,75.868820 101.624077,93.809761 87.067307,99.595566 
	C83.491989,101.016640 79.695053,101.880157 76.000000,103.000000 
M30.005083,77.442230 
	C30.683716,78.104645 31.359234,79.340248 32.041447,79.343948 
	C43.192951,79.404533 54.350262,79.487366 65.495445,79.176910 
	C71.364792,79.013428 74.122559,76.021027 74.107353,70.989906 
	C74.092468,66.066010 71.231262,63.081593 65.303864,62.955250 
	C53.694386,62.707787 42.075916,62.882538 30.557577,62.882538 
	C30.315161,63.389294 30.059481,63.676731 30.056822,63.966496 
	C30.018654,68.128136 30.014572,72.290085 30.005083,77.442230 
M60.250275,41.031509 
	C61.079620,41.015068 61.914631,41.055298 62.737408,40.973118 
	C68.672058,40.380352 71.691605,37.685963 71.713715,32.998756 
	C71.737137,28.032322 68.620689,24.919462 62.486530,24.779808 
	C51.774277,24.535929 41.052467,24.711864 30.262676,24.711864 
	C30.262676,30.329838 30.262676,35.548386 30.262676,41.032276 
	C40.117687,41.032276 49.712772,41.032276 60.250275,41.031509 
z"/>
<path fill="#020202" opacity="1.000000" stroke="none" 
	d="
M730.000000,0.999998 
	C731.066711,1.000000 732.133362,1.000000 733.754883,1.365032 
	C748.925903,3.222512 759.138184,11.519086 761.987671,24.215818 
	C766.227783,43.108932 760.908813,55.058990 743.371887,65.725266 
	C750.604431,76.657013 757.857605,87.566200 765.029358,98.528610 
	C765.909119,99.873268 766.353699,101.502602 767.000000,103.000000 
	C756.312439,103.000000 745.624878,103.000000 734.440674,102.652527 
	C727.020569,91.726006 720.127197,81.126968 713.129517,70.597290 
	C712.391968,69.487495 711.074280,68.068039 709.967896,68.015770 
	C704.392395,67.752380 698.797729,67.894806 693.000000,67.894806 
	C693.000000,80.040451 693.000000,91.520226 693.000000,103.000000 
	C683.645752,103.000000 674.291565,103.000000 664.505615,102.532623 
	C664.049316,68.376823 664.024658,34.688412 664.000000,1.000000 
	C664.444458,1.000000 664.888916,1.000000 665.963257,1.293089 
	C667.237061,1.714420 667.880737,1.953890 668.524719,1.954741 
	C687.961670,1.980438 707.398682,1.998055 726.835449,1.946271 
	C727.891113,1.943458 728.945190,1.329480 730.000000,0.999998 
M693.017761,36.468388 
	C693.017761,39.037827 693.017761,41.607265 693.017761,44.066917 
	C704.108337,44.066917 714.435364,44.301132 724.744751,43.975769 
	C730.577759,43.791676 733.668091,40.164314 733.767883,34.726894 
	C733.870483,29.135239 731.055664,25.322334 725.224976,25.082491 
	C714.643188,24.647217 704.030640,24.959055 693.017761,24.959055 
	C693.017761,28.554413 693.017761,32.019299 693.017761,36.468388 
z"/>
<path fill="#020202" opacity="1.000000" stroke="none" 
	d="
M547.000000,1.000000 
	C547.444458,1.000000 547.888916,1.000000 548.959839,1.297953 
	C551.394897,1.730736 553.203308,1.981390 555.012024,1.983077 
	C583.634644,2.009773 612.257324,2.004512 640.968750,2.467349 
	C641.057556,10.165038 641.057556,17.401949 641.057556,24.990223 
	C618.911194,24.990223 597.517456,24.990223 576.089355,24.990223 
	C576.089355,30.442608 576.089355,35.514175 576.089355,41.039131 
	C594.557983,41.039131 612.778564,41.039131 630.871826,41.039131 
	C630.871826,48.553719 630.871826,55.602764 630.871826,62.974014 
	C612.435730,62.974014 594.356567,62.974014 576.116882,62.974014 
	C576.116882,68.522873 576.116882,73.733368 576.116882,79.308151 
	C597.798157,79.308151 619.200989,79.308151 641.000000,79.308151 
	C641.000000,87.445366 641.000000,95.222687 641.000000,103.000000 
	C609.979126,103.000000 578.958191,103.000000 547.455933,102.531487 
	C546.982971,68.375313 546.991516,34.687656 547.000000,1.000000 
z"/>
<path fill="#010101" opacity="1.000000" stroke="none" 
	d="
M896.000000,102.999985 
	C884.979126,103.000000 873.958191,103.000000 862.470581,102.648361 
	C852.653076,88.408073 843.302368,74.519440 832.568237,58.576107 
	C826.888184,65.107529 821.776550,70.824074 816.893982,76.730019 
	C815.867981,77.970993 815.237549,79.894196 815.188293,81.526047 
	C814.972412,88.679405 815.037109,95.841240 815.000000,103.000000 
	C805.645752,103.000000 796.291565,103.000000 786.592773,102.545731 
	C786.252197,81.998718 786.288879,61.905910 786.248901,41.813251 
	C786.221802,28.208723 786.086731,14.604409 786.000000,1.000000 
	C795.354248,1.000000 804.708435,1.000000 814.571533,1.467179 
	C815.080322,15.657673 815.080322,29.380989 815.080322,44.102222 
	C817.084900,42.222229 818.387268,41.062103 819.621643,39.833675 
	C832.329163,27.187532 845.025757,14.530328 858.210327,1.911622 
	C868.417664,1.962163 878.140320,2.016602 887.862061,1.948002 
	C889.243530,1.938253 890.620789,1.330816 892.000000,1.000004 
	C892.444458,1.000000 892.888916,1.000000 893.894043,1.306962 
	C881.259888,14.463655 868.065063,27.313387 854.641846,40.385529 
	C862.950562,52.766785 871.213013,64.958260 879.343994,77.236794 
	C884.989685,85.762459 890.454407,94.408005 896.000000,102.999985 
z"/>
<path fill="#FDFDFD" opacity="1.000000" stroke="none" 
	d="
M204.000000,1.000000 
	C230.020889,1.000000 256.041779,1.000000 282.479736,1.466216 
	C282.952942,35.286793 283.009094,68.641151 282.973022,102.241699 
	C282.920532,102.658592 282.960266,102.829292 283.000000,103.000000 
	C277.645081,103.000000 272.290131,103.000000 266.408569,102.534607 
	C265.881927,94.327934 265.881927,86.586662 265.881927,78.468727 
	C244.838287,78.468727 224.461441,78.468727 203.602692,78.468727 
	C203.602692,76.292526 203.602676,74.505417 203.602676,72.718315 
	C203.602676,54.105389 203.574005,35.492390 203.620895,16.879583 
	C203.634232,11.586104 203.867554,6.293179 204.000000,1.000000 
z"/>
<path fill="#FDFDFD" opacity="1.000000" stroke="none" 
	d="
M374.531342,1.000002 
	C385.336243,34.742020 395.672485,68.484032 406.004364,102.613022 
	C395.645782,103.000000 385.291534,103.000000 374.445740,102.531845 
	C373.954163,94.313301 373.954163,86.562912 373.954163,78.361031 
	C352.846069,78.361031 332.446777,78.361031 312.000000,78.361031 
	C312.000000,52.259445 312.000000,26.629723 312.000000,1.000000 
	C332.687561,1.000000 353.375122,1.000000 374.531342,1.000002 
z"/>
<path fill="#FEFEFE" opacity="1.000000" stroke="none" 
	d="
M896.468689,102.999985 
	C890.454407,94.408005 884.989685,85.762459 879.343994,77.236794 
	C871.213013,64.958260 862.950562,52.766785 854.641846,40.385529 
	C868.065063,27.313387 881.259888,14.463655 894.227356,1.306962 
	C910.354248,1.000000 926.708435,1.000000 943.576355,1.466807 
	C944.090027,16.533745 944.090027,31.133875 944.090027,46.194038 
	C928.872681,46.194038 914.141846,46.194038 899.139648,46.194038 
	C899.139648,50.219223 899.139648,53.781265 899.139648,57.974724 
	C914.178955,57.974724 929.034119,57.974724 944.000000,57.974724 
	C944.000000,73.402443 944.000000,88.201225 944.000000,103.000000 
	C928.312439,103.000000 912.624878,103.000000 896.468689,102.999985 
z"/>
<path fill="#FCFCFC" opacity="1.000000" stroke="none" 
	d="
M76.468658,103.000000 
	C79.695053,101.880157 83.491989,101.016640 87.067307,99.595566 
	C101.624077,93.809761 108.580826,75.868820 100.646103,62.376350 
	C97.673096,57.320961 91.848816,53.942379 87.406151,49.874046 
	C98.860390,45.192200 101.681557,34.818119 99.627464,22.545677 
	C97.597351,10.416456 88.221680,3.296646 73.149963,1.369145 
	C89.354225,1.000000 105.708458,1.000000 122.586670,1.465357 
	C123.110664,7.527300 123.110664,13.123886 123.110664,18.693192 
	C132.684402,18.693192 141.585358,18.693192 151.000000,18.693192 
	C151.000000,12.587024 151.000000,6.793512 151.000000,1.000000 
	C158.687576,1.000000 166.375168,1.000000 174.416687,1.456526 
	C174.749573,18.349947 174.688187,34.786919 174.718658,51.223721 
	C174.750031,68.150833 174.870926,85.077774 174.848053,102.259132 
	C174.828979,102.675652 174.914490,102.837822 175.000000,103.000000 
	C167.312424,103.000000 159.624832,103.000000 151.402054,102.535477 
	C150.866852,78.309532 150.866852,54.548115 150.866852,30.693193 
	C141.340775,30.693193 132.316879,30.693193 123.000000,30.693193 
	C123.000000,55.060856 123.000000,79.030426 123.000000,103.000000 
	C107.645775,103.000000 92.291542,103.000000 76.468658,103.000000 
z"/>
<path fill="#FEFEFE" opacity="1.000000" stroke="none" 
	d="
M641.468628,103.000000 
	C641.000000,95.222687 641.000000,87.445366 641.000000,79.308151 
	C619.200989,79.308151 597.798157,79.308151 576.116882,79.308151 
	C576.116882,73.733368 576.116882,68.522873 576.116882,62.974014 
	C594.356567,62.974014 612.435730,62.974014 630.871826,62.974014 
	C630.871826,55.602764 630.871826,48.553719 630.871826,41.039131 
	C612.778564,41.039131 594.557983,41.039131 576.089355,41.039131 
	C576.089355,35.514175 576.089355,30.442608 576.089355,24.990223 
	C597.517456,24.990223 618.911194,24.990223 641.057556,24.990223 
	C641.057556,17.401949 641.057556,10.165038 641.051025,2.221939 
	C641.029602,1.343835 641.014832,1.171917 641.000000,1.000000 
	C648.354248,1.000000 655.708496,1.000000 663.531372,1.000000 
	C664.024658,34.688412 664.049316,68.376823 664.036987,102.532623 
	C656.645752,103.000000 649.291504,103.000000 641.468628,103.000000 
z"/>
<path fill="#000000" opacity="1.000000" stroke="none" 
	d="
M174.952652,102.004791 
	C174.870926,85.077774 174.750031,68.150833 174.718658,51.223721 
	C174.688187,34.786919 174.749573,18.349947 174.885315,1.456526 
	C184.354233,1.000000 193.708450,1.000000 203.531342,1.000000 
	C203.867554,6.293179 203.634232,11.586104 203.620895,16.879583 
	C203.574005,35.492390 203.602676,54.105389 203.602676,72.718315 
	C203.602676,74.505417 203.602692,76.292526 203.602692,78.468727 
	C224.461441,78.468727 244.838287,78.468727 265.881927,78.468727 
	C265.881927,86.586662 265.881927,94.327934 265.940979,102.534607 
	C265.555542,103.000000 265.111115,103.000000 264.037048,102.706055 
	C261.605682,102.278305 259.804016,102.029625 258.002106,102.027885 
	C230.318970,102.001244 202.635818,102.006760 174.952652,102.004791 
z"/>
<path fill="#000000" opacity="1.000000" stroke="none" 
	d="
M311.531342,1.000000 
	C312.000000,26.629723 312.000000,52.259445 312.000000,78.361031 
	C332.446777,78.361031 352.846069,78.361031 373.954163,78.361031 
	C373.954163,86.562912 373.954163,94.313301 373.977081,102.531845 
	C373.555542,103.000000 373.111115,103.000000 372.037994,102.704773 
	C369.599762,102.274963 367.790344,102.024948 365.980621,102.023094 
	C338.342194,101.994820 310.703705,101.998940 283.065247,101.995514 
	C283.009094,68.641151 282.952942,35.286793 282.948395,1.466216 
	C292.354218,1.000000 301.708466,1.000000 311.531342,1.000000 
z"/>
<path fill="#FDFDFD" opacity="1.000000" stroke="none" 
	d="
M546.532410,1.000000 
	C546.991516,34.687656 546.982971,68.375313 546.987244,102.531487 
	C531.312439,103.000000 515.624878,103.000000 499.468658,103.000000 
	C509.336426,69.260155 519.672852,35.520309 530.004639,1.390232 
	C535.354919,1.000000 540.709900,1.000000 546.532410,1.000000 
z"/>
<path fill="#FDFDFD" opacity="1.000000" stroke="none" 
	d="
M785.531372,1.000000 
	C786.086731,14.604409 786.221802,28.208723 786.248901,41.813251 
	C786.288879,61.905910 786.252197,81.998718 786.124084,102.545731 
	C779.978821,103.000000 773.957703,103.000000 767.468262,103.000000 
	C766.353699,101.502602 765.909119,99.873268 765.029358,98.528610 
	C757.857605,87.566200 750.604431,76.657013 743.371887,65.725266 
	C760.908813,55.058990 766.227783,43.108932 761.987671,24.215818 
	C759.138184,11.519086 748.925903,3.222512 734.154907,1.365032 
	C751.020874,1.000000 768.041809,1.000000 785.531372,1.000000 
z"/>
<path fill="#0CFF45" opacity="1.000000" stroke="none" 
	d="
M944.460632,103.000000 
	C944.000000,88.201225 944.000000,73.402443 944.000000,57.974724 
	C929.034119,57.974724 914.178955,57.974724 899.139648,57.974724 
	C899.139648,53.781265 899.139648,50.219223 899.139648,46.194038 
	C914.141846,46.194038 928.872681,46.194038 944.090027,46.194038 
	C944.090027,31.133875 944.090027,16.533745 944.045044,1.466807 
	C947.692932,1.000000 951.385803,1.000000 955.395569,1.449952 
	C955.712402,16.498968 955.712402,31.098032 955.712402,46.000000 
	C970.461304,46.000000 984.730652,46.000000 999.000000,46.000000 
	C999.000000,49.692909 999.000000,53.385818 998.534302,57.482315 
	C983.997253,57.885906 969.925964,57.885906 956.000000,57.885906 
	C956.000000,73.415619 956.000000,88.207809 956.000000,103.000000 
	C952.307068,103.000000 948.614197,103.000000 944.460632,103.000000 
z"/>
<path fill="#050505" opacity="1.000000" stroke="none" 
	d="
M123.468658,103.000000 
	C123.000000,79.030426 123.000000,55.060856 123.000000,30.693193 
	C132.316879,30.693193 141.340775,30.693193 150.866852,30.693193 
	C150.866852,54.548115 150.866852,78.309532 150.933426,102.535477 
	C141.979111,103.000000 132.958206,103.000000 123.468658,103.000000 
z"/>
<path fill="#FFFFFF" opacity="1.000000" stroke="none" 
	d="
M999.000000,45.531342 
	C984.730652,46.000000 970.461304,46.000000 955.712402,46.000000 
	C955.712402,31.098032 955.712402,16.498968 955.856201,1.449952 
	C970.261719,1.000000 984.523376,1.000000 999.000000,1.000000 
	C999.000000,15.686863 999.000000,30.374773 999.000000,45.531342 
z"/>
<path fill="#FFFFFF" opacity="1.000000" stroke="none" 
	d="
M956.468628,103.000000 
	C956.000000,88.207809 956.000000,73.415619 956.000000,57.885906 
	C969.925964,57.885906 983.997253,57.885906 998.534302,57.942955 
	C999.000000,72.925034 999.000000,87.850060 999.000000,103.000000 
	C984.979919,103.000000 970.958618,103.000000 956.468628,103.000000 
z"/>
<path fill="#FCFCFC" opacity="1.000000" stroke="none" 
	d="
M815.468628,103.000000 
	C815.037109,95.841240 814.972412,88.679405 815.188293,81.526047 
	C815.237549,79.894196 815.867981,77.970993 816.893982,76.730019 
	C821.776550,70.824074 826.888184,65.107529 832.568237,58.576107 
	C843.302368,74.519440 852.653076,88.408073 862.001892,102.648361 
	C846.645752,103.000000 831.291565,103.000000 815.468628,103.000000 
z"/>
<path fill="#FBFBFB" opacity="1.000000" stroke="none" 
	d="
M434.468658,103.000000 
	C440.130310,82.752586 446.260651,62.505177 452.859222,40.711227 
	C459.275146,62.118313 465.286713,82.176170 471.149139,102.617020 
	C458.979095,103.000000 446.958221,103.000000 434.468658,103.000000 
z"/>
<path fill="#FBFBFB" opacity="1.000000" stroke="none" 
	d="
M500.531342,1.000001 
	C497.237549,15.426047 493.500092,29.858688 489.700745,44.275009 
	C488.097351,50.359001 486.363373,56.408585 484.311798,63.839046 
	C477.860107,42.341244 471.770264,22.049116 465.840210,1.378494 
	C477.354218,1.000000 488.708466,1.000000 500.531342,1.000001 
z"/>
<path fill="#FBFBFB" opacity="1.000000" stroke="none" 
	d="
M440.531311,0.999997 
	C435.581451,19.404716 430.167786,37.810883 424.737488,56.212143 
	C424.130615,58.268639 423.429169,60.297222 422.313782,63.759937 
	C416.533112,42.276138 411.082642,22.019602 405.816101,1.381533 
	C417.354218,1.000000 428.708466,1.000000 440.531311,0.999997 
z"/>
<path fill="#FDFDFD" opacity="1.000000" stroke="none" 
	d="
M693.468628,103.000000 
	C693.000000,91.520226 693.000000,80.040451 693.000000,67.894806 
	C698.797729,67.894806 704.392395,67.752380 709.967896,68.015770 
	C711.074280,68.068039 712.391968,69.487495 713.129517,70.597290 
	C720.127197,81.126968 727.020569,91.726006 733.971985,102.652527 
	C720.645752,103.000000 707.291565,103.000000 693.468628,103.000000 
z"/>
<path fill="#FAFAFA" opacity="1.000000" stroke="none" 
	d="
M857.725342,1.876211 
	C845.025757,14.530328 832.329163,27.187532 819.621643,39.833675 
	C818.387268,41.062103 817.084900,42.222229 815.080322,44.102222 
	C815.080322,29.380989 815.080322,15.657673 815.040161,1.467179 
	C829.020874,1.000000 843.041809,1.000000 857.423706,1.206834 
	C857.784729,1.413667 857.725342,1.876213 857.725342,1.876211 
z"/>
<path fill="#00FF3C" opacity="1.000000" stroke="none" 
	d="
M150.666672,1.000000 
	C151.000000,6.793512 151.000000,12.587024 151.000000,18.693192 
	C141.585358,18.693192 132.684402,18.693192 123.110664,18.693192 
	C123.110664,13.123886 123.110664,7.527300 123.055328,1.465357 
	C123.444443,1.000000 123.888893,1.000000 124.963669,1.292729 
	C133.396011,1.390305 141.197998,1.195153 149.000000,1.000000 
	C149.444443,1.000000 149.888901,1.000000 150.666672,1.000000 
z"/>
<path fill="#181818" opacity="1.000000" stroke="none" 
	d="
M2.028617,2.032248 
	C2.021045,35.039204 2.013474,68.046158 2.007726,101.773804 
	C2.006366,102.662994 2.003183,102.831497 2.000000,103.000000 
	C1.666668,101.674721 1.044463,100.349915 1.042272,99.024086 
	C0.988279,66.349457 1.000000,33.674717 1.506059,1.258092 
	C2.017618,1.688206 2.023117,1.860227 2.028617,2.032248 
z"/>
<path fill="#0D0D0D" opacity="1.000000" stroke="none" 
	d="
M640.531372,1.000000 
	C641.014832,1.171917 641.029602,1.343835 640.962158,1.761162 
	C612.257324,2.004512 583.634644,2.009773 555.012024,1.983077 
	C553.203308,1.981390 551.394897,1.730736 549.293152,1.297953 
	C579.354248,1.000000 609.708435,1.000000 640.531372,1.000000 
z"/>
<path fill="#101010" opacity="1.000000" stroke="none" 
	d="
M174.848053,102.259132 
	C202.635818,102.006760 230.318970,102.001244 258.002106,102.027885 
	C259.804016,102.029625 261.605682,102.278305 263.703735,102.706055 
	C234.645767,103.000000 205.291550,103.000000 175.468658,103.000000 
	C174.914490,102.837822 174.828979,102.675652 174.848053,102.259132 
z"/>
<path fill="#0D0D0D" opacity="1.000000" stroke="none" 
	d="
M282.973022,102.241699 
	C310.703705,101.998940 338.342194,101.994820 365.980621,102.023094 
	C367.790344,102.024948 369.599762,102.274963 371.704651,102.704773 
	C342.645782,103.000000 313.291534,103.000000 283.468658,103.000000 
	C282.960266,102.829292 282.920532,102.658592 282.973022,102.241699 
z"/>
<path fill="#090909" opacity="1.000000" stroke="none" 
	d="
M2.468657,103.000000 
	C2.003183,102.831497 2.006366,102.662994 2.017017,102.241684 
	C23.011414,101.993050 43.998356,101.987457 64.985245,102.018745 
	C66.795586,102.021446 68.605568,102.268196 70.707855,102.700790 
	C48.312439,103.000000 25.624876,103.000000 2.468657,103.000000 
z"/>
<path fill="#101010" opacity="1.000000" stroke="none" 
	d="
M2.494270,2.019392 
	C2.023117,1.860227 2.017618,1.688206 2.006059,1.258092 
	C23.354227,1.000000 44.708454,1.000000 66.531342,1.000000 
	C65.277473,1.332426 63.555973,1.947745 61.832264,1.954000 
	C42.208347,2.025211 22.584089,2.003449 2.494270,2.019392 
z"/>
<path fill="#1A1A1A" opacity="1.000000" stroke="none" 
	d="
M729.531372,0.999998 
	C728.945190,1.329480 727.891113,1.943458 726.835449,1.946271 
	C707.398682,1.998055 687.961670,1.980438 668.524719,1.954741 
	C667.880737,1.953890 667.237061,1.714420 666.296631,1.293089 
	C687.020874,1.000000 708.041809,1.000000 729.531372,0.999998 
z"/>
<path fill="#141414" opacity="1.000000" stroke="none" 
	d="
M858.210327,1.911624 
	C857.725342,1.876213 857.784729,1.413667 857.892334,1.206834 
	C869.020874,1.000000 880.041809,1.000000 891.531372,1.000004 
	C890.620789,1.330816 889.243530,1.938253 887.862061,1.948002 
	C878.140320,2.016602 868.417664,1.962163 858.210327,1.911624 
z"/>
<path fill="#141414" opacity="1.000000" stroke="none" 
	d="
M403.531342,0.999999 
	C400.631287,1.330500 397.265503,1.896388 393.893219,1.937857 
	C388.460571,2.004663 383.023682,1.725594 377.294281,1.296319 
	C385.687561,1.000000 394.375122,1.000000 403.531342,0.999999 
z"/>
<path fill="#141414" opacity="1.000000" stroke="none" 
	d="
M527.531372,1.000000 
	C519.862854,1.197543 511.725708,1.395087 503.294281,1.296315 
	C511.020905,1.000000 519.041809,1.000000 527.531372,1.000000 
z"/>
<path fill="#1FFF53" opacity="1.000000" stroke="none" 
	d="
M148.531372,1.000000 
	C141.197998,1.195153 133.396011,1.390305 125.297005,1.292729 
	C132.687576,1.000000 140.375168,1.000000 148.531372,1.000000 
z"/>
<path fill="#181818" opacity="1.000000" stroke="none" 
	d="
M463.531464,1.000000 
	C457.197235,1.196016 450.394440,1.392031 443.295837,1.294023 
	C449.687653,1.000000 456.375275,1.000000 463.531464,1.000000 
z"/>
<path fill="#FEFEFE" opacity="1.000000" stroke="none" 
	d="
M30.003689,76.947098 
	C30.014572,72.290085 30.018654,68.128136 30.056822,63.966496 
	C30.059481,63.676731 30.315161,63.389294 30.557577,62.882538 
	C42.075916,62.882538 53.694386,62.707787 65.303864,62.955250 
	C71.231262,63.081593 74.092468,66.066010 74.107353,70.989906 
	C74.122559,76.021027 71.364792,79.013428 65.495445,79.176910 
	C54.350262,79.487366 43.192951,79.404533 32.041447,79.343948 
	C31.359234,79.340248 30.683716,78.104645 30.003689,76.947098 
z"/>
<path fill="#FDFDFD" opacity="1.000000" stroke="none" 
	d="
M59.779064,41.031891 
	C49.712772,41.032276 40.117687,41.032276 30.262676,41.032276 
	C30.262676,35.548386 30.262676,30.329838 30.262676,24.711864 
	C41.052467,24.711864 51.774277,24.535929 62.486530,24.779808 
	C68.620689,24.919462 71.737137,28.032322 71.713715,32.998756 
	C71.691605,37.685963 68.672058,40.380352 62.737408,40.973118 
	C61.914631,41.055298 61.079620,41.015068 59.779064,41.031891 
z"/>
<path fill="#FDFDFD" opacity="1.000000" stroke="none" 
	d="
M693.017761,35.976288 
	C693.017761,32.019299 693.017761,28.554413 693.017761,24.959055 
	C704.030640,24.959055 714.643188,24.647217 725.224976,25.082491 
	C731.055664,25.322334 733.870483,29.135239 733.767883,34.726894 
	C733.668091,40.164314 730.577759,43.791676 724.744751,43.975769 
	C714.435364,44.301132 704.108337,44.066917 693.017761,44.066917 
	C693.017761,41.607265 693.017761,39.037827 693.017761,35.976288 
z"/>
</svg>